<svg width="25" height="25" viewBox="0 0 25 25" fill="none" xmlns="http://www.w3.org/2000/svg">
<path d="M19.5 18.75C19.9142 18.75 20.25 19.0858 20.25 19.5C20.25 19.8797 19.9678 20.1935 19.6018 20.2432L19.5 20.25H5.5C5.08579 20.25 4.75 19.9142 4.75 19.5C4.75 19.1203 5.03215 18.8065 5.39823 18.7568L5.5 18.75H19.5ZM12.5 3.5C12.8797 3.5 13.1935 3.78215 13.2432 4.14823L13.25 4.25V14.238L16.2156 11.273C16.4819 11.0067 16.8985 10.9825 17.1922 11.2004L17.2763 11.273C17.5692 11.5659 17.5692 12.0407 17.2763 12.3336L13.0336 16.5763C12.7407 16.8692 12.2659 16.8692 11.973 16.5763L7.73033 12.3336C7.43744 12.0407 7.43744 11.5659 7.73033 11.273C8.02322 10.9801 8.4981 10.9801 8.79099 11.273L11.75 14.232V4.25C11.75 3.83579 12.0858 3.5 12.5 3.5Z" fill="#696969"/>
</svg>
